<svg width="40" height="40" viewBox="0 0 40 40" fill="none" xmlns="http://www.w3.org/2000/svg">
<path fill-rule="evenodd" clip-rule="evenodd" d="M0 20C0 8.95431 8.95431 0 20 0C31.0457 0 40 8.95431 40 20C40 31.0457 31.0457 40 20 40C8.95431 40 0 31.0457 0 20ZM10.25 16.625V30H14.5V16.625H10.25ZM10 12.375C10 13.75 11 14.75 12.375 14.75C13.75 14.75 14.75 13.75 14.75 12.375C14.75 11 13.75 10 12.375 10C11.125 10 10 11 10 12.375ZM25.75 30H29.75V21.75C29.75 17.625 27.25 16.25 24.875 16.25C22.75 16.25 21.25 17.625 20.875 18.5V16.625H16.875V30H21.125V22.875C21.125 21 22.375 20 23.625 20C24.875 20 25.75 20.625 25.75 22.75V30Z" fill="#5256B6"/>
</svg>
