<svg width="53" height="53" viewBox="0 0 53 53" fill="none" xmlns="http://www.w3.org/2000/svg">
<path fill-rule="evenodd" clip-rule="evenodd" d="M32.4294 16.748C26.0694 8.57496 16.1319 3.3125 4.96875 3.3125C4.52949 3.3125 4.10821 3.487 3.7976 3.7976C3.487 4.10821 3.3125 4.52949 3.3125 4.96875C3.3125 16.1341 8.57496 26.0694 16.748 32.4316C16.4081 34.5609 16.5342 36.7387 17.1177 38.8146C17.7011 40.8905 18.728 42.8151 20.1275 44.4556C21.527 46.096 23.2657 47.4134 25.2237 48.3166C27.1817 49.2199 29.3124 49.6876 31.4688 49.6875C31.908 49.6875 32.3293 49.513 32.6399 49.2024C32.9505 48.8918 33.125 48.4705 33.125 48.0312V38.9086C35.2717 37.2135 37.2121 35.2723 38.9064 33.125H48.0312C48.4705 33.125 48.8918 32.9505 49.2024 32.6399C49.513 32.3293 49.6875 31.908 49.6875 31.4687C49.6877 29.3122 49.2199 27.1813 48.3165 25.2231C47.4131 23.2649 46.0956 21.5261 44.4548 20.1266C42.8141 18.727 40.8892 17.7002 38.8131 17.1169C36.7369 16.5336 34.5589 16.4077 32.4294 16.748ZM19.875 14.9062C21.1928 14.9062 22.4566 15.4297 23.3884 16.3616C24.3203 17.2934 24.8438 18.5572 24.8438 19.875C24.8438 21.1928 24.3203 22.4566 23.3884 23.3884C22.4566 24.3203 21.1928 24.8438 19.875 24.8438C18.5572 24.8438 17.2934 24.3203 16.3616 23.3884C15.4297 22.4566 14.9062 21.1928 14.9062 19.875C14.9062 18.5572 15.4297 17.2934 16.3616 16.3616C17.2934 15.4297 18.5572 14.9062 19.875 14.9062Z" fill="white"/>
<path d="M41.3842 38.0761C41.2097 37.946 41.0626 37.7828 40.9512 37.5959C40.8399 37.409 40.7664 37.202 40.735 36.9867C40.7036 36.7713 40.715 36.5519 40.7684 36.341C40.8218 36.1301 40.9162 35.9317 41.0463 35.7573C41.1764 35.5829 41.3395 35.4358 41.5264 35.3244C41.7134 35.213 41.9204 35.1395 42.1357 35.1081C42.351 35.0768 42.5704 35.0881 42.7813 35.1415C42.9923 35.1949 43.1906 35.2894 43.3651 35.4194C45.0591 36.6795 46.3763 38.3789 47.1742 40.3336C47.9722 42.2883 48.2204 44.424 47.8921 46.5097C47.8387 46.8571 47.6762 47.1784 47.4281 47.4274C47.18 47.6763 46.8591 47.8398 46.5119 47.8943C44.4261 48.2223 42.2902 47.9738 40.3355 47.1754C38.3808 46.3771 36.6815 45.0594 35.4217 43.365C35.2874 43.191 35.1891 42.9921 35.1325 42.7798C35.0759 42.5674 35.0621 42.3459 35.092 42.1282C35.1218 41.9105 35.1947 41.7009 35.3063 41.5116C35.418 41.3223 35.5662 41.1572 35.7423 41.0258C35.9184 40.8943 36.1189 40.7993 36.3322 40.7461C36.5454 40.6929 36.7671 40.6827 36.9843 40.7161C37.2015 40.7494 37.4099 40.8257 37.5973 40.9404C37.7848 41.0551 37.9475 41.2059 38.0761 41.3841C38.8462 42.4199 39.8481 43.2609 41.0016 43.8399C42.1551 44.419 43.4281 44.7199 44.7188 44.7187C44.7188 42.0025 43.4114 39.5888 41.3842 38.0761Z" fill="white"/>
</svg>
