<svg width="180" height="36" viewBox="0 0 180 36" fill="none" xmlns="http://www.w3.org/2000/svg">
<path d="M0.292892 8.70711C-0.0976257 8.31659 -0.0976257 7.68342 0.292892 7.2929L6.65686 0.928935C7.04738 0.538411 7.68054 0.538411 8.07108 0.928935C8.46159 1.31946 8.46159 1.95262 8.07108 2.34315L2.41422 8L8.07108 13.6569C8.46159 14.0474 8.46159 14.6805 8.07108 15.0711C7.68054 15.4616 7.04738 15.4616 6.65686 15.0711L0.292892 8.70711ZM179 9L1 9L1 7L179 7L179 9Z" fill="#96E9FF"/>
<path d="M179.707 27.2929C180.098 27.6834 180.098 28.3166 179.707 28.7071L173.343 35.0711C172.953 35.4616 172.319 35.4616 171.929 35.0711C171.538 34.6805 171.538 34.0474 171.929 33.6569L177.586 28L171.929 22.3431C171.538 21.9526 171.538 21.3195 171.929 20.9289C172.319 20.5384 172.953 20.5384 173.343 20.9289L179.707 27.2929ZM179 29L1 29L1 27L179 27L179 29Z" fill="white"/>
</svg>
