<svg width="39" height="39" viewBox="0 0 39 39" fill="none" xmlns="http://www.w3.org/2000/svg">
<path d="M38.0562 17.9993L33.6306 15.996L21.3212 21.5756C20.7423 21.8308 20.1329 21.9679 19.5007 21.9679C18.8685 21.9679 18.2667 21.8308 17.6802 21.5794L5.37083 15.996L0.943721 17.9993C-0.313115 18.5706 -0.313115 20.4749 0.943721 21.0462L18.6918 29.0899C19.2059 29.328 19.7963 29.328 20.3104 29.0899L38.0585 21.0462C39.313 20.4749 39.313 18.5706 38.0562 17.9993ZM0.943721 11.2733L18.6918 19.3323C19.2059 19.5608 19.7963 19.5608 20.3104 19.3323L38.0562 11.2733C39.313 10.7021 39.313 8.79775 38.0562 8.22647L20.3081 0.16748C19.794 -0.0610352 19.2036 -0.0610352 18.6895 0.16748L0.943721 8.22647C-0.313496 8.79775 -0.313496 10.7021 0.943721 11.2733ZM38.0562 27.7341L33.6474 25.7346L21.3151 31.3241C20.7423 31.5808 20.1329 31.7179 19.5007 31.7179C18.8685 31.7179 18.2629 31.5846 17.6817 31.3275L5.3495 25.738L0.940674 27.7375C-0.316162 28.3088 -0.316162 30.2131 0.940674 30.7844L18.6887 38.8281C19.2029 39.0566 19.7932 39.0566 20.3074 38.8281L38.0554 30.7844C39.313 30.2097 39.313 28.3054 38.0562 27.7341Z" fill="#887DF7"/>
</svg>
