<svg width="25" height="25" viewBox="0 0 25 25" fill="none" xmlns="http://www.w3.org/2000/svg">
<path fill-rule="evenodd" clip-rule="evenodd" d="M12.9138 20.6295C14.4585 19.8282 19.7909 16.684 19.7909 11.4587C19.7909 7.43158 16.5263 4.16699 12.4992 4.16699C8.47211 4.16699 5.20752 7.43158 5.20752 11.4587C5.20752 16.684 10.5398 19.8282 12.0846 20.6295C12.348 20.7661 12.6504 20.7661 12.9138 20.6295ZM12.4992 14.5837C14.2251 14.5837 15.6242 13.1845 15.6242 11.4587C15.6242 9.73277 14.2251 8.33366 12.4992 8.33366C10.7733 8.33366 9.37419 9.73277 9.37419 11.4587C9.37419 13.1845 10.7733 14.5837 12.4992 14.5837Z" fill="white"/>
</svg>
