<svg width="25" height="25" viewBox="0 0 25 25" fill="none" xmlns="http://www.w3.org/2000/svg">
<path fill-rule="evenodd" clip-rule="evenodd" d="M3.13876 9.5326C3.125 10.094 3.125 10.7314 3.125 11.4585V13.5418C3.125 16.4881 3.125 17.9612 4.04029 18.8765C4.95558 19.7918 6.42872 19.7918 9.375 19.7918H15.625C18.5713 19.7918 20.0444 19.7918 20.9597 18.8765C21.875 17.9612 21.875 16.4881 21.875 13.5418V11.4585C21.875 10.7314 21.875 10.094 21.8612 9.5326L13.5118 14.1712C12.8825 14.5208 12.1175 14.5208 11.4882 14.1712L3.13876 9.5326ZM3.37813 7.32262C3.46445 7.3443 3.54939 7.37748 3.63088 7.42275L12.5 12.35L21.3691 7.42275C21.4506 7.37748 21.5356 7.34431 21.6219 7.32263C21.4865 6.82945 21.2787 6.44275 20.9597 6.12379C20.0444 5.2085 18.5713 5.2085 15.625 5.2085H9.375C6.42872 5.2085 4.95558 5.2085 4.04029 6.12379C3.72133 6.44275 3.51352 6.82945 3.37813 7.32262Z" fill="white"/>
</svg>
