<svg width="25" height="25" viewBox="0 0 25 25" fill="none" xmlns="http://www.w3.org/2000/svg">
<path fill-rule="evenodd" clip-rule="evenodd" d="M11.4588 3.18262V8.27918C10.8264 8.2131 10.2084 8.08713 9.62045 7.90447C8.71245 7.62239 7.9028 7.21351 7.23289 6.71108C6.7922 6.38056 6.42062 6.01618 6.12123 5.6304C7.55538 4.29809 9.40733 3.40939 11.4588 3.18262ZM13.5421 3.18262L13.5421 8.27918C14.1745 8.2131 14.7925 8.08713 15.3804 7.90447C16.2884 7.62239 17.0981 7.21351 17.768 6.71108C18.2087 6.38056 18.5803 6.01618 18.8797 5.6304C17.4455 4.29809 15.5936 3.40939 13.5421 3.18262ZM20.2572 7.23346C19.8938 7.6497 19.4779 8.0328 19.018 8.37774C18.1403 9.03604 17.1126 9.54791 15.9985 9.89401C15.2088 10.1393 14.3822 10.2994 13.5421 10.3719V11.4583L21.8182 11.4583C21.6463 9.90381 21.0943 8.46386 20.2572 7.23346ZM21.8183 13.5417L13.5421 13.5417V14.6281C14.3822 14.7006 15.2088 14.8607 15.9985 15.106C17.1126 15.4521 18.1403 15.9639 19.018 16.6222C19.4781 16.9673 19.8941 17.3505 20.2575 17.7669C21.0946 16.5364 21.6465 15.0963 21.8183 13.5417ZM18.88 19.3701C18.5806 18.9841 18.2089 18.6196 17.768 18.2889C17.0981 17.7865 16.2884 17.3776 15.3804 17.0955C14.7925 16.9129 14.1745 16.7869 13.5421 16.7208L13.5421 21.8182C15.5937 21.5914 17.4458 20.7026 18.88 19.3701ZM11.4588 21.8182V16.7208C10.8264 16.7869 10.2084 16.9129 9.62045 17.0955C8.71245 17.3776 7.9028 17.7865 7.23289 18.2889C6.79202 18.6196 6.42031 18.9841 6.12086 19.3701C7.55506 20.7026 9.40716 21.5914 11.4588 21.8182ZM4.74338 17.7669C5.10683 17.3505 5.52284 16.9673 5.98289 16.6222C6.86062 15.9639 7.88829 15.4521 9.00238 15.106C9.79207 14.8607 10.6187 14.7006 11.4588 14.6281V13.5417L3.18262 13.5417C3.3544 15.0963 3.90633 16.5364 4.74338 17.7669ZM3.18271 11.4583L11.4588 11.4583V10.3719C10.6187 10.2994 9.79207 10.1393 9.00238 9.89401C7.88829 9.54791 6.86062 9.03604 5.98289 8.37774C5.52297 8.0328 5.10706 7.6497 4.74369 7.23346C3.90661 8.46386 3.35462 9.90381 3.18271 11.4583Z" fill="white"/>
</svg>
